<svg xmlns="http://www.w3.org/2000/svg" width="30" height="30" viewBox="0 0 58 58" fill="none">
<g filter="url(#filter0_d_97_6899)">
<path d="M23.75 29.25H24.8L31.2687 22.7812L30.2188 21.7313L23.75 28.2V29.25ZM34.475 21.6938L31.2875 18.5437L32.3375 17.4938C32.625 17.2063 32.9783 17.0625 33.3973 17.0625C33.8163 17.0625 34.1692 17.2063 34.4562 17.4938L35.5062 18.5437C35.7937 18.8312 35.9437 19.1782 35.9562 19.5847C35.9688 19.9913 35.8313 20.338 35.5438 20.625L34.475 21.6938ZM33.3875 22.8L25.4375 30.75H22.25V27.5625L30.2 19.6125L33.3875 22.8ZM30.7437 22.2563L30.2188 21.7313L31.2687 22.7812L30.7437 22.2563Z" fill="black"/>
</g>
<defs>
<filter id="filter0_d_97_6899" x="0" y="0" width="58" height="58" filterUnits="userSpaceOnUse" color-interpolation-filters="sRGB">
<feFlood flood-opacity="0" result="BackgroundImageFix"/>
<feColorMatrix in="SourceAlpha" type="matrix" values="0 0 0 0 0 0 0 0 0 0 0 0 0 0 0 0 0 0 127 0" result="hardAlpha"/>
<feOffset dy="5"/>
<feGaussianBlur stdDeviation="10"/>
<feComposite in2="hardAlpha" operator="out"/>
<feColorMatrix type="matrix" values="0 0 0 0 0 0 0 0 0 0 0 0 0 0 0 0 0 0 0.05 0"/>
<feBlend mode="normal" in2="BackgroundImageFix" result="effect1_dropShadow_97_6899"/>
<feBlend mode="normal" in="SourceGraphic" in2="effect1_dropShadow_97_6899" result="shape"/>
</filter>
</defs>
</svg>