<svg xmlns="http://www.w3.org/2000/svg" width="20" height="20" viewBox="0 0 20 20" fill="none">
<path d="M4.66667 10.6663H4V9.33301H4.66667C4.84348 9.33301 5.01305 9.40325 5.13807 9.52827C5.2631 9.65329 5.33333 9.82286 5.33333 9.99967C5.33333 10.1765 5.2631 10.3461 5.13807 10.4711C5.01305 10.5961 4.84348 10.6663 4.66667 10.6663ZM9.33333 13.333V9.33301H10C10.1768 9.33301 10.3464 9.40325 10.4714 9.52827C10.5964 9.65329 10.6667 9.82286 10.6667 9.99967V12.6663C10.6667 12.8432 10.5964 13.0127 10.4714 13.1377C10.3464 13.2628 10.1768 13.333 10 13.333H9.33333Z" fill="#C31A7F"/>
<path fillRule="evenodd" clipRule="evenodd" d="M1.33203 2C1.33203 1.46957 1.54274 0.960859 1.91782 0.585786C2.29289 0.210714 2.8016 0 3.33203 0L14.2747 0L18.6654 4.39067V18C18.6654 18.5304 18.4547 19.0391 18.0796 19.4142C17.7045 19.7893 17.1958 20 16.6654 20H3.33203C2.8016 20 2.29289 19.7893 1.91782 19.4142C1.54274 19.0391 1.33203 18.5304 1.33203 18V2ZM4.66536 8H2.66536V14.6667H3.9987V12H4.66536C5.1958 12 5.70451 11.7893 6.07958 11.4142C6.45465 11.0391 6.66536 10.5304 6.66536 10C6.66536 9.46957 6.45465 8.96086 6.07958 8.58579C5.70451 8.21071 5.1958 8 4.66536 8ZM9.9987 8H7.9987V14.6667H9.9987C10.5291 14.6667 11.0378 14.456 11.4129 14.0809C11.788 13.7058 11.9987 13.1971 11.9987 12.6667V10C11.9987 9.46957 11.788 8.96086 11.4129 8.58579C11.0378 8.21071 10.5291 8 9.9987 8ZM13.332 14.6667V8H17.332V9.33333H14.6654V10.6667H15.9987V12H14.6654V14.6667H13.332Z" fill="#C31A7F"/>
</svg>