<svg xmlns="http://www.w3.org/2000/svg" width="30" height="40" viewBox="0 0 30 40" fill="none">
<path d="M5 0C3.67392 0 2.40215 0.526784 1.46447 1.46447C0.526784 2.40215 0 3.67392 0 5V35C0 36.3261 0.526784 37.5979 1.46447 38.5355C2.40215 39.4732 3.67392 40 5 40H25C26.3261 40 27.5979 39.4732 28.5355 38.5355C29.4732 37.5979 30 36.3261 30 35V5C30 3.67392 29.4732 2.40215 28.5355 1.46447C27.5979 0.526784 26.3261 0 25 0L5 0ZM5 2.5H25C25.663 2.5 26.2989 2.76339 26.7678 3.23223C27.2366 3.70107 27.5 4.33696 27.5 5V35C27.5 35.663 27.2366 36.2989 26.7678 36.7678C26.2989 37.2366 25.663 37.5 25 37.5H5C4.33696 37.5 3.70107 37.2366 3.23223 36.7678C2.76339 36.2989 2.5 35.663 2.5 35V5C2.5 4.33696 2.76339 3.70107 3.23223 3.23223C3.70107 2.76339 4.33696 2.5 5 2.5Z" fill="black"/>
<path d="M6.51166 30.2132C6.02439 30.0184 5.63181 29.6419 5.41666 29.1632C4.92916 28.1932 5.09166 27.2232 5.61666 26.4082C6.11166 25.6407 6.93166 24.9882 7.85916 24.4407C9.034 23.7744 10.2759 23.2339 11.5642 22.8282C12.5646 21.0297 13.4513 19.1702 14.2192 17.2607C13.7601 16.2177 13.4002 15.1337 13.1442 14.0232C12.9292 13.0232 12.8467 12.0332 13.0292 11.1832C13.2167 10.2982 13.7142 9.50324 14.6542 9.12574C15.1342 8.93324 15.6542 8.82574 16.1592 8.93324C16.4132 8.98732 16.652 9.09726 16.8582 9.25509C17.0645 9.41292 17.2331 9.61468 17.3517 9.84574C17.5717 10.2557 17.6517 10.7357 17.6692 11.1907C17.6867 11.6582 17.6392 12.1782 17.5517 12.7257C17.3417 14.0007 16.8767 15.5607 16.2517 17.2107C16.9414 18.6858 17.7613 20.0964 18.7017 21.4257C19.8144 21.3379 20.9336 21.3798 22.0367 21.5507C22.9467 21.7132 23.8717 22.0382 24.4367 22.7132C24.7367 23.0732 24.9192 23.5132 24.9367 24.0082C24.9542 24.4882 24.8192 24.9632 24.5917 25.4157C24.3946 25.8351 24.0891 26.1941 23.7067 26.4557C23.3287 26.7023 22.8824 26.8231 22.4317 26.8007C21.6042 26.7657 20.7967 26.3107 20.0992 25.7582C19.2511 25.0569 18.4868 24.26 17.8217 23.3832C16.131 23.575 14.4605 23.9146 12.8292 24.3982C12.0813 25.7232 11.2277 26.9856 10.2767 28.1732C9.55166 29.0482 8.75666 29.8107 7.96166 30.1407C7.50488 30.3474 6.98677 30.3733 6.51166 30.2132ZM9.95916 25.4607C9.54416 25.6507 9.15916 25.8507 8.81166 26.0557C7.99166 26.5407 7.45916 27.0132 7.19416 27.4232C6.95916 27.7857 6.95416 28.0482 7.09416 28.3257C7.11916 28.3807 7.14416 28.4157 7.15916 28.4357C7.18897 28.4278 7.21821 28.4177 7.24666 28.4057C7.58916 28.2657 8.13416 27.8182 8.83416 26.9757C9.23227 26.4883 9.60767 25.9828 9.95916 25.4607ZM14.0592 22.1357C14.8939 21.9407 15.7363 21.7798 16.5842 21.6532C16.1287 20.9568 15.7034 20.2411 15.3092 19.5082C14.9171 20.3948 14.5003 21.2701 14.0592 22.1332V22.1357ZM20.1742 23.2607C20.5492 23.6657 20.9142 24.0107 21.2617 24.2857C21.8617 24.7607 22.2792 24.9182 22.5067 24.9257C22.5676 24.9337 22.6294 24.9205 22.6817 24.8882C22.7857 24.8061 22.8666 24.6984 22.9167 24.5757C23.0055 24.4235 23.0562 24.2519 23.0642 24.0757C23.0627 24.017 23.0396 23.9609 22.9992 23.9182C22.8692 23.7632 22.4992 23.5382 21.7042 23.3957C21.1985 23.3112 20.6869 23.2669 20.1742 23.2632V23.2607ZM15.1992 14.4957C15.4096 13.817 15.5766 13.1256 15.6992 12.4257C15.7767 11.9557 15.8067 11.5682 15.7942 11.2632C15.7948 11.095 15.7678 10.9277 15.7142 10.7682C15.5891 10.7837 15.467 10.8174 15.3517 10.8682C15.1342 10.9557 14.9567 11.1332 14.8617 11.5757C14.7617 12.0557 14.7867 12.7482 14.9767 13.6307C15.0367 13.9082 15.1117 14.1982 15.2017 14.4957H15.1992Z" fill="black"/>
</svg>