<svg width="34" height="34" viewBox="0 0 34 34" fill="none" xmlns="http://www.w3.org/2000/svg">
<path fillRule="evenodd" clipRule="evenodd" d="M0 17C0 12.4913 1.79107 8.1673 4.97918 4.97918C8.1673 1.79107 12.4913 0 17 0C21.5087 0 25.8327 1.79107 29.0208 4.97918C32.2089 8.1673 34 12.4913 34 17C34 21.5087 32.2089 25.8327 29.0208 29.0208C25.8327 32.2089 21.5087 34 17 34C12.4913 34 8.1673 32.2089 4.97918 29.0208C1.79107 25.8327 0 21.5087 0 17ZM17 2.43847C14.1776 2.43857 11.416 3.25891 9.05125 4.79969C6.68649 6.34048 4.82048 8.53529 3.68022 11.1171C2.53996 13.699 2.17459 16.5565 2.62858 19.3422C3.08257 22.1279 4.33633 24.7216 6.23735 26.8078C7.39146 25.0001 8.9826 23.5125 10.8637 22.4824C12.7449 21.4523 14.8553 20.913 17 20.9144C19.1447 20.9128 21.2553 21.452 23.1364 22.4821C25.0176 23.5122 26.6087 24.9999 27.7626 26.8078C29.6637 24.7216 30.9174 22.1279 31.3714 19.3422C31.8254 16.5565 31.46 13.699 30.3198 11.1171C29.1795 8.53529 27.3135 6.34048 24.9487 4.79969C22.584 3.25891 19.8224 2.43857 17 2.43847ZM25.9376 28.4968C25.0293 26.9313 23.7255 25.6321 22.1569 24.7293C20.5882 23.8265 18.8099 23.3518 17 23.3529C15.1901 23.3518 13.4118 23.8265 11.8431 24.7293C10.2745 25.6321 8.97067 26.9313 8.06236 28.4968C10.6157 30.4878 13.7621 31.5667 17 31.5615C20.3677 31.5615 23.4684 30.4167 25.9376 28.4968ZM10.968 14.446C10.968 12.8462 11.6035 11.312 12.7347 10.1807C13.8659 9.04953 15.4002 8.41401 17 8.41401C18.5998 8.41401 20.1341 9.04953 21.2653 10.1807C22.3965 11.312 23.032 12.8462 23.032 14.446C23.032 16.0458 22.3965 17.5801 21.2653 18.7113C20.1341 19.8425 18.5998 20.478 17 20.478C15.4002 20.478 13.8659 19.8425 12.7347 18.7113C11.6035 17.5801 10.968 16.0458 10.968 14.446ZM17 10.8525C16.5281 10.8525 16.0608 10.9454 15.6248 11.126C15.1888 11.3066 14.7927 11.5713 14.459 11.905C14.1253 12.2387 13.8606 12.6348 13.68 13.0708C13.4994 13.5068 13.4065 13.9741 13.4065 14.446C13.4065 14.9179 13.4994 15.3852 13.68 15.8212C13.8606 16.2572 14.1253 16.6533 14.459 16.987C14.7927 17.3207 15.1888 17.5854 15.6248 17.766C16.0608 17.9466 16.5281 18.0396 17 18.0396C17.9531 18.0396 18.8671 17.661 19.541 16.987C20.2149 16.3131 20.5935 15.3991 20.5935 14.446C20.5935 13.493 20.2149 12.5789 19.541 11.905C18.8671 11.2311 17.9531 10.8525 17 10.8525Z" fill="#A94360"/>
</svg>
